<svg xmlns="http://www.w3.org/2000/svg" xmlns:xlink="http://www.w3.org/1999/xlink" version="1.1" x="0px" y="0px" viewBox="0 0 100 88.75" enable-background="new 0 0 100 71" xml:space="preserve"><path fill="none" d=""/><g><path d="M21.533,57.281c-0.002,0-0.004,0-0.006,0c-3.728-0.003-7.297-2.363-10.609-7.016c-0.908-1.275-0.61-3.046,0.665-3.954   c1.275-0.906,3.045-0.609,3.953,0.665c1.505,2.114,3.767,4.634,5.995,4.636c0.001,0,0.001,0,0.002,0c2.23,0,4.499-2.52,6.01-4.635   c0.001-0.001,0.002-0.003,0.003-0.004c3.324-4.654,6.9-7.015,10.63-7.015c0.002,0,0.003,0,0.005,0   c3.705,0.003,7.254,2.333,10.551,6.928c0.023,0.029,0.045,0.06,0.067,0.09c1.505,2.114,3.767,4.634,5.997,4.636   c0,0,0.001,0,0.002,0c2.232,0,4.501-2.522,6.013-4.639c0.001-0.001,0.002-0.003,0.003-0.005c3.327-4.65,6.903-7.01,10.629-7.01   c0.004,0,0.007,0,0.01,0c3.727,0.005,7.294,2.366,10.605,7.019c0.907,1.275,0.609,3.045-0.666,3.953   c-1.273,0.905-3.045,0.611-3.953-0.666c-1.504-2.113-3.765-4.634-5.992-4.636c-0.001,0-0.003,0-0.004,0   c-2.231,0-4.503,2.521-6.018,4.639c0,0,0,0-0.001,0.001c-3.322,4.653-6.897,7.013-10.626,7.013c-0.002,0-0.004,0-0.006,0   c-3.704-0.002-7.251-2.332-10.546-6.926c-0.023-0.029-0.045-0.06-0.067-0.09c-1.506-2.114-3.769-4.636-6-4.637c0,0-0.001,0-0.002,0   c-2.234,0-4.505,2.522-6.017,4.64c-0.001,0.002-0.002,0.003-0.003,0.005C28.833,54.924,25.26,57.281,21.533,57.281z M21.533,40.023   c-0.002,0-0.004,0-0.006,0c-3.728-0.003-7.297-2.363-10.609-7.017c-0.908-1.275-0.61-3.045,0.665-3.953   c1.275-0.909,3.045-0.61,3.953,0.665c1.505,2.114,3.767,4.634,5.995,4.635c0.001,0,0.001,0,0.002,0   c2.231,0,4.501-2.522,6.013-4.639c0-0.001,0.001-0.002,0.002-0.003c3.323-4.652,6.898-7.011,10.627-7.011c0.002,0,0.003,0,0.005,0   c3.705,0.002,7.254,2.333,10.551,6.928c0.023,0.03,0.045,0.06,0.067,0.09c1.505,2.114,3.767,4.634,5.997,4.635c0,0,0.001,0,0.002,0   c2.232,0,4.501-2.522,6.013-4.638c0.001-0.002,0.002-0.003,0.003-0.005c3.327-4.651,6.903-7.01,10.629-7.01c0.004,0,0.007,0,0.01,0   c3.727,0.004,7.294,2.366,10.605,7.019c0.907,1.275,0.609,3.045-0.666,3.953c-1.273,0.906-3.045,0.61-3.953-0.666   c-1.504-2.114-3.765-4.634-5.992-4.636c-0.001,0-0.003,0-0.004,0c-2.231,0-4.503,2.521-6.018,4.639c0,0,0,0-0.001,0   c-3.322,4.654-6.897,7.014-10.626,7.014c-0.002,0-0.004,0-0.006,0c-3.704-0.002-7.251-2.332-10.546-6.926   c-0.023-0.03-0.045-0.06-0.067-0.09c-1.506-2.115-3.769-4.636-6-4.637c0,0-0.001,0-0.002,0c-2.233,0-4.502,2.52-6.014,4.636   c-0.001,0.001-0.002,0.002-0.003,0.004C28.836,37.664,25.261,40.023,21.533,40.023z M21.533,22.765c-0.002,0-0.004,0-0.006,0   c-3.728-0.002-7.297-2.363-10.609-7.016c-0.908-1.275-0.61-3.045,0.665-3.953s3.045-0.61,3.953,0.665   c1.505,2.114,3.767,4.633,5.995,4.635c0.001,0,0.001,0,0.002,0c2.229,0,4.498-2.518,6.009-4.633   c0.001-0.002,0.002-0.003,0.003-0.005c3.324-4.655,6.9-7.016,10.63-7.016c0.002,0,0.003,0,0.005,0   c3.705,0.002,7.254,2.333,10.551,6.928c0.023,0.03,0.045,0.06,0.067,0.09c1.505,2.113,3.767,4.633,5.997,4.635c0,0,0.001,0,0.002,0   c2.231,0,4.5-2.52,6.011-4.636c0.001-0.001,0.002-0.002,0.003-0.003c3.327-4.654,6.904-7.014,10.631-7.014c0.004,0,0.007,0,0.01,0   c3.727,0.004,7.294,2.366,10.605,7.019c0.907,1.276,0.609,3.045-0.666,3.953c-1.276,0.907-3.045,0.61-3.953-0.666   c-1.504-2.114-3.765-4.634-5.992-4.637c-0.001,0-0.003,0-0.004,0c-2.231,0-4.505,2.524-6.02,4.642   c-0.001,0.001-0.002,0.003-0.003,0.004c-3.321,4.649-6.896,7.007-10.622,7.007c-0.002,0-0.004,0-0.006,0   c-3.704-0.002-7.251-2.333-10.546-6.926c-0.023-0.03-0.045-0.06-0.067-0.09c-1.506-2.115-3.77-4.636-6-4.637c0,0-0.001,0-0.002,0   c-2.234,0-4.504,2.523-6.016,4.64c-0.001,0.001-0.001,0.002-0.002,0.003C28.835,20.406,25.26,22.765,21.533,22.765z"/></g><text x="0" y="86" fill="#000000" font-size="5px" font-weight="bold" font-family="'Helvetica Neue', Helvetica, Arial-Unicode, Arial, Sans-serif">Created by mohit arora</text><text x="0" y="91" fill="#000000" font-size="5px" font-weight="bold" font-family="'Helvetica Neue', Helvetica, Arial-Unicode, Arial, Sans-serif">from the Noun Project</text></svg>